<?xml version="1.0" encoding="utf-8"?>
<!-- Generator: Adobe Illustrator 16.0.0, SVG Export Plug-In . SVG Version: 6.00 Build 0)  -->
<!DOCTYPE svg PUBLIC "-//W3C//DTD SVG 1.1//EN" "http://www.w3.org/Graphics/SVG/1.1/DTD/svg11.dtd">
<svg version="1.1" id="Layer_1" xmlns="http://www.w3.org/2000/svg" xmlns:xlink="http://www.w3.org/1999/xlink" x="0px" y="0px"
	 width="960px" height="613px" viewBox="0 0 960 613" enable-background="new 0 0 960 613" xml:space="preserve">
<g>
	<g>
		<rect fill="#FF0066" width="960" height="613"/>
		<rect x="18" y="18" fill="#FFFFFF" width="177" height="86"/>
		<rect x="719" y="18" fill="#FFFFFF" width="219" height="33"/>
		<rect x="215" y="63" fill="#FFFFFF" width="723" height="41"/>
		<rect x="215" y="119" fill="#FFFFFF" width="723" height="290"/>
		<rect x="215" y="422" fill="#FFFFFF" width="723" height="95"/>
		<rect x="18" y="531" fill="#FFFFFF" width="920" height="64"/>
		<rect x="18" y="119" fill="#FFFFFF" width="177" height="398"/>
	</g>
	<line fill="#FF0066" x1="0" y1="0" x2="960" y2="0"/>
	<rect opacity="0.85" width="960" height="613"/>
</g>
<g>
	<path fill="#FFFFFF" d="M134.729,192.78h30c20.247,0,35.803,7.037,35.803,28.642c0,20.865-15.679,30.248-35.309,30.248h-12.222
		v32.47h-18.272V192.78z M163.989,237.225c12.593,0,18.642-5.309,18.642-15.803c0-10.617-6.667-14.198-19.259-14.198h-10.371v30
		H163.989z"/>
	<path fill="#FFFFFF" d="M212.503,238.089c0-29.753,16.667-47.038,40.865-47.038c24.198,0,40.865,17.408,40.865,47.038
		c0,29.63-16.667,47.779-40.865,47.779C229.169,285.868,212.503,267.72,212.503,238.089z M275.59,238.089
		c0-19.63-8.642-31.358-22.223-31.358s-22.223,11.729-22.223,31.358c0,19.507,8.642,31.976,22.223,31.976
		S275.59,257.596,275.59,238.089z"/>
	<path fill="#FFFFFF" d="M361.881,284.14l-18.766-34.568h-12.716v34.568h-18.272V192.78h31.852c19.136,0,34.322,6.667,34.322,27.655
		c0,13.704-6.914,22.222-17.408,26.296l21.358,37.408H361.881z M330.399,235.126h11.852c11.729,0,18.148-4.938,18.148-14.691
		c0-9.877-6.42-13.21-18.148-13.21h-11.852V235.126z"/>
	<path fill="#FFFFFF" d="M412.124,207.965h-25.68V192.78h69.877v15.185h-25.926v76.174h-18.272V207.965z"/>
	<path fill="#FFFFFF" d="M471.133,192.78h56.297v15.185h-38.025v23.828h32.471v15.309h-32.471v37.038h-18.271V192.78z"/>
	<path fill="#FFFFFF" d="M537.303,238.089c0-29.753,16.666-47.038,40.863-47.038c24.199,0,40.865,17.408,40.865,47.038
		c0,29.63-16.666,47.779-40.865,47.779C553.969,285.868,537.303,267.72,537.303,238.089z M600.389,238.089
		c0-19.63-8.641-31.358-22.223-31.358c-13.58,0-22.223,11.729-22.223,31.358c0,19.507,8.643,31.976,22.223,31.976
		C591.748,270.065,600.389,257.596,600.389,238.089z"/>
	<path fill="#FFFFFF" d="M636.926,192.78h18.273v76.05h37.037v15.309h-55.311V192.78z"/>
	<path fill="#FFFFFF" d="M708.158,192.78h18.271v91.359h-18.271V192.78z"/>
	<path fill="#FFFFFF" d="M744.328,238.089c0-29.753,16.666-47.038,40.863-47.038c24.199,0,40.865,17.408,40.865,47.038
		c0,29.63-16.666,47.779-40.865,47.779C760.994,285.868,744.328,267.72,744.328,238.089z M807.414,238.089
		c0-19.63-8.641-31.358-22.223-31.358c-13.58,0-22.223,11.729-22.223,31.358c0,19.507,8.643,31.976,22.223,31.976
		C798.773,270.065,807.414,257.596,807.414,238.089z"/>
	<path fill="#FFFFFF" d="M133.974,308.063h17.043v85.217h-17.043V308.063z"/>
	<path fill="#FFFFFF" d="M170.594,328.791h13.819l1.151,8.637h0.461c5.412-5.643,11.4-10.25,19.807-10.25
		c9.212,0,14.625,4.146,17.734,11.285c5.873-6.219,12.091-11.285,20.498-11.285c13.704,0,20.038,9.674,20.038,25.91v40.191h-16.928
		v-38.117c0-9.904-2.879-13.475-8.982-13.475c-3.685,0-7.831,2.418-12.437,7.256v44.336h-16.928v-38.117
		c0-9.904-2.879-13.475-8.982-13.475c-3.685,0-7.831,2.418-12.437,7.256v44.336h-16.813V328.791z"/>
	<path fill="#FFFFFF" d="M278.383,375.775c0-13.82,11.17-21.074,37.081-23.838c-0.23-6.334-2.994-11.17-10.94-11.17
		c-5.988,0-11.746,2.648-17.734,6.102l-6.104-11.17c7.601-4.721,16.813-8.521,26.947-8.521c16.353,0,24.759,9.789,24.759,28.445
		v37.656h-13.819l-1.267-6.91h-0.345c-5.643,4.836-12.092,8.521-19.462,8.521C285.984,394.891,278.383,386.715,278.383,375.775z
		 M315.464,375.314v-13.014c-15.662,2.074-20.959,6.334-20.959,12.092c0,5.066,3.57,7.256,8.522,7.256
		C307.864,381.648,311.434,379.344,315.464,375.314z"/>
	<path fill="#FFFFFF" d="M345.406,404.68c0-5.412,3.34-10.02,9.213-13.359v-0.574c-3.34-2.189-5.873-5.529-5.873-10.826
		c0-4.836,3.339-9.328,7.14-12.092v-0.459c-4.376-3.225-8.521-9.328-8.521-16.814c0-15.201,12.322-23.377,26.025-23.377
		c3.57,0,7.025,0.691,9.673,1.613h23.262v12.436H395.27c1.727,2.189,2.994,5.758,2.994,9.789c0,14.51-11.055,21.881-24.875,21.881
		c-2.533,0-5.527-0.576-8.291-1.498c-1.843,1.498-2.764,2.994-2.764,5.527c0,3.455,2.534,5.297,10.134,5.297h10.94
		c15.546,0,23.953,4.838,23.953,16.123c0,13.014-13.473,22.916-35.008,22.916C357.152,421.262,345.406,416.08,345.406,404.68z
		 M391.239,401.225c0-4.605-3.8-5.758-10.709-5.758h-7.831c-3.915,0-6.679-0.346-8.982-0.922c-2.879,2.305-4.261,4.838-4.261,7.486
		c0,5.412,5.988,8.521,15.431,8.521C384.56,410.553,391.239,406.291,391.239,401.225z M383.408,350.555
		c0-7.6-4.261-11.861-10.019-11.861c-5.758,0-10.134,4.262-10.134,11.861c0,7.602,4.491,11.861,10.134,11.861
		C379.032,362.416,383.408,358.156,383.408,350.555z"/>
	<path fill="#FFFFFF" d="M412.198,361.15c0-20.959,14.625-33.973,30.056-33.973c17.735,0,26.947,13.014,26.947,30.863
		c0,3.109-0.345,6.219-0.806,7.715h-39.729c1.382,10.594,8.292,16.123,17.85,16.123c5.297,0,9.903-1.613,14.51-4.492l5.758,10.365
		c-6.334,4.375-14.51,7.139-22.571,7.139C426.248,394.891,412.198,382.338,412.198,361.15z M454.691,354.586
		c0-8.752-3.915-14.279-12.207-14.279c-6.794,0-12.783,4.836-14.049,14.279H454.691z"/>
	<path fill="#FFFFFF" d="M601.172,349.979v11.977H562.02v17.965h-15.201v-17.965h-41.803v-11.977H601.172z M509.393,333.051
		c20.498-2.303,31.092-10.939,32.934-19.346h-28.443v-12.092h78.537v12.092h-28.559c1.729,8.521,12.207,17.043,32.936,19.346
		l-5.527,11.861c-19.691-2.188-32.59-10.363-38.232-21.189c-5.412,10.826-18.426,19.002-38.232,21.189L509.393,333.051z
		 M531.387,389.248h59.076v12.092h-74.277v-30.518h15.201V389.248z"/>
	<path fill="#FFFFFF" d="M631.348,305.528v25.681h22.111v-25.681h15.086v73.126h-52.283v-73.126H631.348z M631.348,366.563h22.111
		V343.07h-22.111V366.563z M698.945,297.006v106.406h-15.201V297.006H698.945z"/>
	<path fill="#FFFFFF" d="M772.535,357.35v7.83c18.195,1.498,29.02,8.063,29.02,18.887c0,12.207-13.934,19.23-36.852,19.23
		c-22.916,0-36.734-7.023-36.734-19.23c0-10.939,10.939-17.504,29.365-19.002v-7.715h-40.305v-12.092h95.811v12.092H772.535z
		 M721.174,329.365c19.691-1.727,30.057-8.637,32.705-15.775h-28.098v-12.092h78.422v12.092H775.99
		c2.648,7.139,13.012,14.049,32.818,15.775l-5.297,11.746c-19.922-1.727-32.936-9.211-38.578-19.23
		c-5.643,10.02-18.654,17.504-38.693,19.23L721.174,329.365z M764.703,376.35c-14.164,0-21.418,2.305-21.418,7.717
		c0,5.297,7.254,7.6,21.418,7.6c14.166,0,21.42-2.303,21.42-7.6C786.123,378.654,778.869,376.35,764.703,376.35z"/>
</g>
</svg>
